<?xml version="1.0" encoding="utf-8"?>
<!-- Generator: Adobe Illustrator 26.0.1, SVG Export Plug-In . SVG Version: 6.00 Build 0)  -->
<svg version="1.1" id="Слой_1" xmlns="http://www.w3.org/2000/svg" xmlns:xlink="http://www.w3.org/1999/xlink" x="0px" y="0px"
	 viewBox="0 0 1366 768" style="enable-background:new 0 0 1366 768;" xml:space="preserve">
<style type="text/css">
	.st0{fill:#F14B24;stroke:#F14B24;stroke-width:2;stroke-miterlimit:10;}
	.st1{stroke:#000000;stroke-width:28;stroke-miterlimit:10;}
	.st2{stroke:#000000;stroke-width:2;stroke-miterlimit:10;}
	.st3{font-family:'MyriadPro-Regular';}
	.st4{font-size:46.1695px;}
</style>
<path class="st0" d="M1256.86,708H739.67c-9.46,0-17.14-7.67-17.14-17.14V103.14c0-9.46,7.67-17.14,17.14-17.14h517.19
	c9.46,0,17.14,7.67,17.14,17.14v587.73C1274,700.33,1266.33,708,1256.86,708z"/>
<g>
	<path d="M288.49,563.06c-10.68,5.91-32.03,11.82-59.39,11.82c-63.39,0-111.1-44.33-111.1-125.96
		c0-77.94,47.71-130.76,117.44-130.76c28.03,0,45.71,6.65,53.38,11.08l-7.01,26.23c-11.01-5.91-26.69-10.34-45.38-10.34
		c-52.72,0-87.75,37.31-87.75,102.69c0,60.95,31.7,100.1,86.41,100.1c17.68,0,35.7-4.06,47.38-10.34L288.49,563.06z"/>
	<path d="M348.01,322.21h29.03v222h96.09v26.96H348.01V322.21z"/>
	<path d="M1049.29,461.84c-4.66-34.72-10.23-76.46-9.3-107.49h-2.8c-21.39,29.18-47.44,60.21-79.08,94.56L847.41,569.7h-61.41
		L684.59,451.13c-29.77-35.09-54.89-67.23-72.56-96.78h-1.87c-1.85,31.03-6.51,72.77-12.09,110.08l-16.74,106.75H504.1l43.72-248.97
		H651.1l106.99,120.42c26.06,30.66,47.46,57.99,63.27,83.85h2.79c15.82-25.12,38.14-52.45,66.05-83.85l111.64-120.42h103.28
		l39.08,248.97h-79.09L1049.29,461.84z"/>
	<path class="st1" d="M1053.83,332.47V211.56V332.47z"/>
</g>
<ellipse class="st2" cx="824.47" cy="554.78" rx="60.24" ry="53.86"/>
<ellipse class="st2" cx="1107.12" cy="559.91" rx="60.24" ry="53.86"/>
<ellipse class="st2" cx="1056.15" cy="323.93" rx="60.24" ry="53.86"/>
<polyline class="st1" points="1053.83,211.56 1053.83,111.95 1053.83,86 "/>
<text transform="matrix(0.9032 0 0 1 848.4385 680.9629)" class="st3 st4">Сode Line Meter</text>
</svg>
