<?xml version="1.0" encoding="utf-8"?>
<!-- Generator: Adobe Illustrator 26.0.1, SVG Export Plug-In . SVG Version: 6.00 Build 0)  -->
<svg version="1.1" xmlns="http://www.w3.org/2000/svg" xmlns:xlink="http://www.w3.org/1999/xlink" x="0px" y="0px"
	 viewBox="0 0 1366 768" style="enable-background:new 0 0 1366 768;" xml:space="preserve">
<style type="text/css">
	.st0{fill:#FFFFFF;}
	.st1{fill:#FFFFFF;stroke:#FFFFFF;stroke-width:18;stroke-miterlimit:10;}
	.st2{font-family:'BookmanOldStyle';}
	.st3{font-size:130px;}
	.st4{font-size:120px;}
</style>
<g id="Слой_1">
	<g>
		<image style="overflow:visible;" width="1443" height="840" xlink:href="374417ED.png"  transform="matrix(1 0 0 1 -36 -36)">
		</image>
	</g>
</g>
<g id="Слой_2">
	<g>
		<path class="st0" d="M734,280.1c2.9,2.7,6.1,5.7,9.1,8.9c0.1,0,0.2,0,0.3,0c11.4,0,19.8,9.3,20.3,20.3c0,0.1,0,0.2,0,0.3
			c6.3,5.2,12.9,10.2,19.3,15.3c2.9,2.4,6.1,4.6,9.2,6.9c0.7-0.1,1.5-0.1,2.2-0.1c1.2,0,2.4,0.1,3.5,0.3c1.4-1.4,2.8-2.8,4.2-4.2
			c5.2-5.1,10-10.5,14.8-15.9c4.1-4.6,8.1-9.2,12.1-13.8l-65.6-61.4c-12.8-12-33-11.3-45,1.5L704.8,253c2.1,1.9,4.3,3.9,6.4,5.8
			C718.8,265.9,726.4,272.9,734,280.1z"/>
		<path class="st0" d="M850.2,319.8l-5.6-5.2c-3.8,4.3-7.6,8.7-11.4,13c-4.7,5.3-9.3,10.6-14.3,15.6c-2.1,2.1-4.3,4.1-6.4,6.2
			c0.1,0.9,0.3,1.8,0.3,2.7c0.5,11-9.7,20.3-20.3,20.3c-11.4,0-19.8-9.3-20.3-20.3c-0.1-1.3,0-2.6,0.3-3.9c-2.8-2.1-5.6-4.1-8.3-6.3
			c-3.4-2.7-6.8-5.4-10.2-8.1v49.8c4.7,3.8,7.7,9.6,7.9,16c0.5,11-9.7,20.3-20.3,20.3c-11.4,0-19.8-9.3-20.3-20.3
			c-0.3-6.7,3.4-12.8,8.7-16.5v-57.2c-5.1-3.7-8.4-9.8-8.7-16.6c-0.1-1.9,0.2-3.8,0.7-5.5c-0.1-0.1-0.2-0.2-0.3-0.3
			c-3.4-3.5-6.9-6.9-10.4-10.2c-6.7-6.3-13.4-12.6-20.2-18.8c-1.5-1.3-2.9-2.7-4.4-4l-52.9,56.6c-12,12.8-11.3,33,1.5,45l88.7,83
			c12.8,12,33,11.3,45-1.5l83-88.7C863.7,352,863,331.8,850.2,319.8z"/>
		<ellipse class="st0" cx="846" cy="303.3" rx="19.9" ry="19.4"/>
		<ellipse class="st0" cx="849" cy="397" rx="19.9" ry="19.4"/>
		<path class="st1" d="M846,305l3,94.4L846,305z"/>
	</g>
	<text transform="matrix(1 0 0 1 873.8422 397.0161)" class="st0 st2 st3">ETER</text>
	<text transform="matrix(1 0 0 1 260.6901 345.332)" class="st0 st2 st4">CODE </text>
	<text transform="matrix(1 0 0 1 298.7318 439.2547)" class="st0 st2 st4">LINE</text>
</g>
<g id="Слой_3">
</g>
</svg>
